<?xml version="1.0" standalone="no"?>
<!DOCTYPE svg PUBLIC "-//W3C//DTD SVG 20010904//EN"
 "http://www.w3.org/TR/2001/REC-SVG-20010904/DTD/svg10.dtd">
<svg version="1.0" xmlns="http://www.w3.org/2000/svg"
 width="500.000000pt" height="500.000000pt" viewBox="0 0 500.000000 500.000000"
 preserveAspectRatio="xMidYMid meet">
<metadata>
Created by potrace 1.14, written by Peter Selinger 2001-2017
</metadata>
<g transform="translate(0.000000,500.000000) scale(0.100000,-0.100000)"
fill="#000000" stroke="none">
<path d="M2480 3065 c0 -362 2 -415 15 -415 13 0 15 53 15 415 0 362 -2 415
-15 415 -13 0 -15 -53 -15 -415z"/>
<path d="M3116 3224 c-151 -36 -254 -123 -290 -243 -29 -98 -14 -207 40 -293
l24 -38 302 0 c166 0 298 4 293 8 -6 5 -55 40 -110 79 -166 118 -205 171 -205
281 0 45 6 67 23 93 45 68 151 97 250 67 59 -18 147 -104 185 -180 32 -66 62
-168 62 -212 0 -21 5 -26 25 -26 l25 0 0 193 c0 105 3 209 6 230 6 35 5 37
-19 37 -21 0 -26 -6 -31 -36 -4 -19 -14 -38 -22 -41 -9 -3 -54 13 -102 35 -48
23 -107 46 -132 51 -64 15 -255 12 -324 -5z"/>
<path d="M1120 3198 c0 -11 11 -19 33 -23 95 -19 97 -25 97 -305 l0 -220 194
0 194 0 4 240 c3 234 4 240 26 262 17 18 34 23 73 23 44 0 54 -4 79 -32 42
-47 54 -101 54 -248 0 -106 -4 -141 -20 -187 l-21 -58 126 0 c140 0 142 1 220
74 85 80 114 199 72 291 -23 51 -89 111 -157 142 -98 45 -179 52 -592 55 -351
3 -382 2 -382 -14z"/>
<path d="M1690 2510 l0 -60 39 0 c44 0 70 22 52 44 -6 7 -8 21 -5 31 9 23 -20
45 -58 45 -28 0 -28 -1 -28 -60z m61 39 c16 -8 18 -13 8 -25 -6 -8 -22 -14
-35 -14 -19 0 -24 5 -24 25 0 27 18 32 51 14z m17 -66 c-2 -12 -14 -19 -36
-21 -27 -3 -32 0 -32 17 0 17 6 21 36 21 28 0 35 -3 32 -17z"/>
<path d="M2133 2510 c0 -36 2 -51 4 -33 5 40 27 60 47 43 8 -6 17 -26 19 -43
4 -32 4 -32 5 4 2 42 -17 64 -47 54 -15 -4 -21 -1 -24 17 -2 13 -4 -6 -4 -42z"/>
<path d="M2643 2563 c-7 -2 -13 -15 -13 -27 0 -17 8 -25 33 -32 46 -14 42 -39
-7 -38 -24 1 -33 -2 -25 -7 37 -23 94 5 70 35 -7 8 -23 17 -36 20 -28 7 -33
31 -10 40 8 3 23 3 33 0 14 -5 15 -4 2 5 -16 11 -27 12 -47 4z"/>
<path d="M2883 2510 c0 -36 2 -50 4 -32 2 17 2 47 0 65 -2 17 -4 3 -4 -33z"/>
<path d="M2039 2543 c-6 -41 10 -93 29 -92 10 0 12 3 5 6 -7 2 -13 20 -13 39
0 20 5 34 13 34 8 0 7 4 -3 10 -18 12 -30 13 -31 3z"/>
<path d="M3069 2543 c-6 -41 10 -93 29 -92 10 0 12 3 5 6 -7 2 -13 20 -13 39
0 20 5 34 13 34 8 0 7 4 -3 10 -18 12 -30 13 -31 3z"/>
<path d="M1831 2490 c2 -34 3 -37 6 -15 3 17 11 37 18 45 12 14 12 16 -5 16
-17 0 -20 -7 -19 -46z"/>
<path d="M1926 2524 c-31 -31 -13 -74 31 -74 21 0 43 25 43 49 0 14 -29 41
-45 41 -7 0 -21 -7 -29 -16z m55 -15 c9 -17 8 -25 -4 -37 -29 -28 -73 12 -47
43 17 21 37 19 51 -6z"/>
<path d="M2266 2524 c-19 -18 -20 -28 -6 -55 11 -19 54 -27 64 -11 2 4 -7 8
-21 7 -14 0 -28 6 -30 13 -3 8 7 12 31 12 20 0 36 4 36 9 0 14 -30 41 -45 41
-7 0 -21 -7 -29 -16z m52 -11 c2 -8 -6 -13 -22 -13 -25 0 -33 10 -19 24 10 10
36 3 41 -11z"/>
<path d="M2381 2490 c2 -34 3 -37 6 -15 3 17 11 37 18 45 12 14 12 16 -5 16
-17 0 -20 -7 -19 -46z"/>
<path d="M2473 2533 c-22 -8 -14 -33 12 -43 14 -5 25 -15 25 -21 0 -7 -10 -9
-25 -7 -14 3 -25 1 -25 -3 0 -14 46 -10 59 4 13 17 -4 37 -32 37 -11 0 -17 5
-14 13 2 6 13 12 25 11 12 0 19 3 16 8 -6 9 -22 9 -41 1z"/>
<path d="M2760 2526 c-28 -35 11 -93 48 -70 35 22 22 84 -18 84 -10 0 -23 -7
-30 -14z m50 -11 c19 -23 8 -50 -20 -50 -19 0 -26 6 -28 24 -5 35 26 53 48 26z"/>
<path d="M2941 2509 c-1 -42 15 -60 53 -57 24 2 26 6 25 48 -1 25 -3 36 -6 25
-2 -11 -6 -30 -9 -43 -3 -17 -10 -22 -27 -20 -17 2 -23 12 -28 43 l-6 40 -2
-36z"/>
<path d="M3163 2495 c0 -27 2 -38 4 -22 2 15 2 37 0 50 -2 12 -4 0 -4 -28z"/>
<path d="M3230 2526 c-28 -35 11 -93 48 -70 35 22 22 84 -18 84 -10 0 -23 -7
-30 -14z m50 -11 c19 -23 8 -50 -20 -50 -19 0 -26 6 -28 24 -5 35 26 53 48 26z"/>
<path d="M3352 2490 c1 -35 2 -38 5 -13 5 40 27 60 47 43 8 -6 17 -26 19 -43
4 -32 4 -32 5 4 2 42 -12 58 -50 56 -26 -2 -28 -5 -26 -47z"/>
<path d="M3481 2531 c-20 -13 -7 -39 21 -43 29 -4 21 -23 -9 -23 -13 1 -19 -3
-14 -8 14 -14 56 -4 56 13 0 8 -12 21 -28 28 -30 14 -27 37 4 29 11 -3 17 -1
13 4 -7 11 -25 11 -43 0z"/>
<path d="M1248 2151 c-3 -227 -6 -235 -84 -247 -32 -5 -44 -11 -44 -23 0 -16
30 -17 433 -16 406 1 437 3 509 23 204 56 296 150 306 312 3 54 0 86 -11 113
l-16 37 -189 0 -188 0 4 -84 c8 -147 -22 -259 -85 -318 -46 -44 -146 -57 -205
-26 -29 14 -38 76 -38 256 l0 172 -194 0 -195 0 -3 -199z"/>
<path d="M2480 1854 c0 -392 3 -495 13 -492 9 4 13 114 15 496 2 433 0 492
-13 492 -13 0 -15 -60 -15 -496z"/>
<path d="M2810 2168 c0 -101 -3 -213 -7 -250 -6 -68 -6 -68 19 -68 22 0 27 6
32 36 4 19 14 38 22 41 8 3 45 -8 83 -25 115 -51 182 -65 326 -65 330 -1 525
139 525 377 0 40 -5 87 -11 105 l-11 31 -255 0 -256 0 52 -51 c64 -63 92 -116
98 -189 7 -71 -9 -119 -50 -160 -91 -89 -305 -72 -391 31 -55 65 -107 199
-121 312 -7 51 -10 57 -31 57 l-24 0 0 -182z"/>
</g>
</svg>
